<svg width="276" height="291" viewBox="0 0 276 291" fill="none" xmlns="http://www.w3.org/2000/svg">
<path d="M271.865 237.595L198.77 164.499H185.116L150.085 199.53V213.183L223.181 286.279C228.56 291.658 237.248 291.658 242.627 286.279L271.865 257.041C273.144 255.765 274.158 254.249 274.85 252.581C275.542 250.913 275.899 249.124 275.899 247.318C275.899 245.511 275.542 243.723 274.85 242.054C274.158 240.386 273.144 238.871 271.865 237.595V237.595Z" fill="#9E9FED"/>
<path d="M212.147 127.537L231.593 108.091L260.832 137.329C268.58 129.571 272.932 119.055 272.932 108.091C272.932 97.1264 268.58 86.6103 260.832 78.8525L212.009 30.03L192.563 49.4762V10.5837L182.909 0.791664L134.086 49.6142L143.878 59.4062H182.909L163.463 78.8525L178.082 93.4717L138.224 133.33L81.2643 76.37V56.7858L39.6134 15.135L0.583008 54.1654L42.3718 95.9542H61.818L118.778 152.914L107.055 164.637H77.8163L4.72051 237.732C3.44197 239.008 2.42763 240.524 1.73554 242.192C1.04346 243.861 0.687217 245.649 0.687217 247.456C0.687217 249.262 1.04346 251.05 1.73554 252.719C2.42763 254.387 3.44197 255.903 4.72051 257.179L33.9588 286.417C39.3376 291.796 48.0263 291.796 53.4051 286.417L126.501 213.321V184.083L197.528 113.056L212.147 127.537Z" fill="#9E9FED"/>
</svg>
